# Blender v2.68 (sub 0) OBJ File: ''
# www.blender.org
mtllib stick.mtl
o Cylinder_Cylinder.001
v 0.000000 -1.000000 -1.000000
v 0.000000 1.000000 -1.000000
v 0.195090 -1.000000 -0.980785
v 0.195090 1.000000 -0.980785
v 0.382683 -1.000000 -0.923880
v 0.382683 1.000000 -0.923880
v 0.555570 -1.000000 -0.831470
v 0.555570 1.000000 -0.831470
v 0.707107 -1.000000 -0.707107
v 0.707107 1.000000 -0.707107
v 0.831470 -1.000000 -0.555570
v 0.831470 1.000000 -0.555570
v 0.923880 -1.000000 -0.382683
v 0.923880 1.000000 -0.382683
v 0.980785 -1.000000 -0.195090
v 0.980785 1.000000 -0.195090
v 1.000000 -1.000000 -0.000000
v 1.000000 1.000000 -0.000000
v 0.980785 -1.000000 0.195090
v 0.980785 1.000000 0.195090
v 0.923880 -1.000000 0.382683
v 0.923880 1.000000 0.382683
v 0.831470 -1.000000 0.555570
v 0.831470 1.000000 0.555570
v 0.707107 -1.000000 0.707107
v 0.707107 1.000000 0.707107
v 0.555570 -1.000000 0.831470
v 0.555570 1.000000 0.831470
v 0.382683 -1.000000 0.923880
v 0.382683 1.000000 0.923880
v 0.195090 -1.000000 0.980785
v 0.195090 1.000000 0.980785
v -0.000000 -1.000000 1.000000
v -0.000000 1.000000 1.000000
v -0.195091 -1.000000 0.980785
v -0.195091 1.000000 0.980785
v -0.382684 -1.000000 0.923879
v -0.382684 1.000000 0.923879
v -0.555571 -1.000000 0.831469
v -0.555571 1.000000 0.831469
v -0.707107 -1.000000 0.707106
v -0.707107 1.000000 0.707106
v -0.831470 -1.000000 0.555570
v -0.831470 1.000000 0.555570
v -0.923880 -1.000000 0.382683
v -0.923880 1.000000 0.382683
v -0.980785 -1.000000 0.195089
v -0.980785 1.000000 0.195089
v -1.000000 -1.000000 -0.000001
v -1.000000 1.000000 -0.000001
v -0.980785 -1.000000 -0.195091
v -0.980785 1.000000 -0.195091
v -0.923879 -1.000000 -0.382684
v -0.923879 1.000000 -0.382684
v -0.831469 -1.000000 -0.555571
v -0.831469 1.000000 -0.555571
v -0.707106 -1.000000 -0.707108
v -0.707106 1.000000 -0.707108
v -0.555569 -1.000000 -0.831470
v -0.555569 1.000000 -0.831470
v -0.382682 -1.000000 -0.923880
v -0.382682 1.000000 -0.923880
v -0.195089 -1.000000 -0.980786
v -0.195089 1.000000 -0.980786
v -0.000000 3.557781 -1.000000
v 0.195090 3.557781 -0.980785
v 0.382683 3.557781 -0.923880
v 0.555570 3.557781 -0.831470
v 0.707107 3.557781 -0.707107
v 0.831470 3.557781 -0.555570
v 0.923879 3.557781 -0.382683
v 0.980785 3.557781 -0.195090
v 1.000000 3.557781 -0.000000
v 0.980785 3.557781 0.195090
v 0.923879 3.557781 0.382683
v 0.831470 3.557781 0.555570
v 0.707107 3.557781 0.707107
v 0.555570 3.557781 0.831470
v 0.382683 3.557781 0.923880
v 0.195090 3.557781 0.980785
v -0.000000 3.557781 1.000000
v -0.195091 3.557781 0.980785
v -0.382684 3.557781 0.923879
v -0.555571 3.557781 0.831469
v -0.707107 3.557781 0.707106
v -0.831470 3.557781 0.555570
v -0.923880 3.557781 0.382683
v -0.980786 3.557781 0.195089
v -1.000000 3.557781 -0.000001
v -0.980785 3.557781 -0.195091
v -0.923879 3.557781 -0.382684
v -0.831469 3.557781 -0.555571
v -0.707106 3.557781 -0.707108
v -0.555569 3.557781 -0.831470
v -0.382682 3.557781 -0.923880
v -0.195089 3.557781 -0.980786
vn 0.098017 0.000000 -0.995185
vn 0.290285 0.000000 -0.956940
vn 0.471397 0.000000 -0.881921
vn 0.634393 0.000000 -0.773010
vn 0.773010 0.000000 -0.634393
vn 0.881921 0.000000 -0.471397
vn 0.956940 0.000000 -0.290285
vn 0.995185 0.000000 -0.098017
vn 0.995185 0.000000 0.098017
vn 0.956940 0.000000 0.290285
vn 0.881921 0.000000 0.471396
vn 0.773010 0.000000 0.634393
vn 0.634393 0.000000 0.773010
vn 0.471397 0.000000 0.881921
vn 0.290284 0.000000 0.956940
vn 0.098017 0.000000 0.995185
vn -0.098018 0.000000 0.995185
vn -0.290285 0.000000 0.956940
vn -0.471397 0.000000 0.881921
vn -0.634394 0.000000 0.773010
vn -0.773011 0.000000 0.634393
vn -0.881922 0.000000 0.471396
vn -0.956941 0.000000 0.290284
vn -0.995185 0.000000 0.098016
vn -0.995185 -0.000000 -0.098018
vn -0.956940 -0.000000 -0.290286
vn -0.881921 -0.000000 -0.471398
vn -0.773010 -0.000000 -0.634394
vn -0.634392 -0.000000 -0.773011
vn -0.471395 -0.000000 -0.881922
vn -0.098017 -0.000000 -0.995185
vn -0.290283 -0.000000 -0.956941
vn 0.000000 -1.000000 -0.000000
vn -0.000000 1.000000 0.000000
vn 0.881921 0.000000 0.471397
vn -0.471396 -0.000000 -0.881922
vn 0.881922 0.000000 0.471396
vn 0.773010 0.000000 -0.634394
vn 0.773010 0.000000 0.634394
vn -0.773011 -0.000000 0.634392
usemtl None
s off
f 1//1 2//1 3//1
f 3//2 4//2 5//2
f 5//3 6//3 7//3
f 7//4 8//4 9//4
f 9//5 10//5 11//5
f 11//6 12//6 13//6
f 13//7 14//7 15//7
f 15//8 16//8 17//8
f 17//9 18//9 19//9
f 19//10 20//10 21//10
f 21//11 22//11 23//11
f 23//12 24//12 25//12
f 25//13 26//13 27//13
f 27//14 28//14 29//14
f 29//15 30//15 31//15
f 31//16 32//16 33//16
f 33//17 34//17 35//17
f 35//18 36//18 37//18
f 37//19 38//19 39//19
f 39//20 40//20 41//20
f 41//21 42//21 43//21
f 43//22 44//22 45//22
f 45//23 46//23 47//23
f 47//24 48//24 49//24
f 49//25 50//25 51//25
f 51//26 52//26 53//26
f 53//27 54//27 55//27
f 55//28 56//28 57//28
f 57//29 58//29 59//29
f 59//30 60//30 61//30
f 58//28 56//28 93//28
f 63//31 64//31 1//31
f 61//32 62//32 63//32
f 1//33 3//33 63//33
f 66//34 65//34 67//34
f 34//16 32//16 81//16
f 10//4 8//4 69//4
f 48//23 46//23 88//23
f 4//1 2//1 66//1
f 24//35 22//35 76//35
f 62//36 60//36 95//36
f 38//18 36//18 83//18
f 14//6 12//6 71//6
f 52//25 50//25 90//25
f 28//13 26//13 78//13
f 2//31 64//31 65//31
f 42//20 40//20 85//20
f 18//8 16//8 73//8
f 56//27 54//27 92//27
f 32//15 30//15 80//15
f 8//3 6//3 68//3
f 46//22 44//22 87//22
f 22//10 20//10 75//10
f 60//29 58//29 94//29
f 36//17 34//17 82//17
f 12//5 10//5 70//5
f 50//24 48//24 89//24
f 26//12 24//12 77//12
f 64//32 62//32 96//32
f 40//19 38//19 84//19
f 16//7 14//7 72//7
f 54//26 52//26 91//26
f 30//14 28//14 79//14
f 6//2 4//2 67//2
f 44//21 42//21 86//21
f 20//9 18//9 74//9
f 2//1 4//1 3//1
f 4//2 6//2 5//2
f 6//3 8//3 7//3
f 8//4 10//4 9//4
f 10//5 12//5 11//5
f 12//6 14//6 13//6
f 14//7 16//7 15//7
f 16//8 18//8 17//8
f 18//9 20//9 19//9
f 20//10 22//10 21//10
f 22//11 24//11 23//11
f 24//12 26//12 25//12
f 26//13 28//13 27//13
f 28//14 30//14 29//14
f 30//15 32//15 31//15
f 32//16 34//16 33//16
f 34//17 36//17 35//17
f 36//18 38//18 37//18
f 38//19 40//19 39//19
f 40//20 42//20 41//20
f 42//21 44//21 43//21
f 44//22 46//22 45//22
f 46//23 48//23 47//23
f 48//24 50//24 49//24
f 50//25 52//25 51//25
f 52//26 54//26 53//26
f 54//27 56//27 55//27
f 56//28 58//28 57//28
f 58//29 60//29 59//29
f 60//30 62//30 61//30
f 56//28 92//28 93//28
f 64//31 2//31 1//31
f 62//32 64//32 63//32
f 3//33 5//33 63//33
f 5//33 7//33 63//33
f 7//33 9//33 63//33
f 9//33 11//33 63//33
f 11//33 13//33 63//33
f 13//33 15//33 63//33
f 15//33 17//33 63//33
f 17//33 19//33 63//33
f 19//33 21//33 63//33
f 21//33 23//33 63//33
f 23//33 25//33 63//33
f 53//33 49//33 51//33
f 25//33 27//33 29//33
f 63//33 25//33 29//33
f 35//33 31//33 33//33
f 35//33 29//33 31//33
f 63//33 29//33 35//33
f 41//33 37//33 39//33
f 41//33 35//33 37//33
f 63//33 35//33 41//33
f 47//33 43//33 45//33
f 61//33 63//33 41//33
f 53//33 47//33 49//33
f 53//33 43//33 47//33
f 59//33 61//33 41//33
f 57//33 59//33 41//33
f 55//33 57//33 41//33
f 53//33 55//33 43//33
f 55//33 41//33 43//33
f 65//34 96//34 67//34
f 96//34 95//34 67//34
f 95//34 94//34 67//34
f 94//34 93//34 67//34
f 93//34 92//34 67//34
f 92//34 91//34 67//34
f 91//34 90//34 67//34
f 90//34 89//34 67//34
f 89//34 88//34 67//34
f 88//34 87//34 67//34
f 87//34 86//34 67//34
f 86//34 85//34 67//34
f 85//34 84//34 67//34
f 83//34 82//34 81//34
f 84//34 83//34 81//34
f 67//34 84//34 81//34
f 68//34 67//34 69//34
f 67//34 81//34 69//34
f 81//34 80//34 69//34
f 80//34 79//34 69//34
f 79//34 78//34 69//34
f 78//34 77//34 69//34
f 77//34 76//34 69//34
f 76//34 75//34 69//34
f 75//34 74//34 69//34
f 74//34 73//34 69//34
f 73//34 72//34 69//34
f 72//34 71//34 69//34
f 71//34 70//34 69//34
f 32//16 80//16 81//16
f 8//4 68//4 69//4
f 46//23 87//23 88//23
f 2//1 65//1 66//1
f 22//37 75//37 76//37
f 60//30 94//30 95//30
f 36//18 82//18 83//18
f 12//6 70//6 71//6
f 50//25 89//25 90//25
f 26//13 77//13 78//13
f 64//31 96//31 65//31
f 40//20 84//20 85//20
f 16//8 72//8 73//8
f 54//27 91//27 92//27
f 30//15 79//15 80//15
f 6//3 67//3 68//3
f 44//22 86//22 87//22
f 20//10 74//10 75//10
f 58//29 93//29 94//29
f 34//17 81//17 82//17
f 10//38 69//38 70//38
f 48//24 88//24 89//24
f 24//39 76//39 77//39
f 62//32 95//32 96//32
f 38//19 83//19 84//19
f 14//7 71//7 72//7
f 52//26 90//26 91//26
f 28//14 78//14 79//14
f 4//2 66//2 67//2
f 42//40 85//40 86//40
f 18//9 73//9 74//9
